<svg width="200" height="200" viewBox="0 0 51 51" fill="none" xmlns="http://www.w3.org/2000/svg">
<path opacity="0.3" d="M45.9 25.5001C45.9 36.7456 36.7455 45.9001 25.5 45.9001C14.2545 45.9001 5.10001 36.7456 5.10001 25.5001C5.10001 14.2546 14.2545 5.1001 25.5 5.1001C36.7455 5.1001 45.9 14.2546 45.9 25.5001ZM25.5 28.0501H35.7V22.9501H25.5V15.3001L15.3 25.5001L25.5 35.7001V28.0501Z" fill="#008A9D"/>
<path d="M45.9 25.5C45.9 36.7455 36.7455 45.9 25.5 45.9C14.2545 45.9 5.1 36.7455 5.1 25.5C5.1 14.2545 14.2545 5.1 25.5 5.1C36.7455 5.1 45.9 14.2545 45.9 25.5ZM51 25.5C51 11.424 39.576 0 25.5 0C11.424 0 0 11.424 0 25.5C0 39.576 11.424 51 25.5 51C39.576 51 51 39.576 51 25.5ZM25.5 28.05H35.7V22.95H25.5V15.3L15.3 25.5L25.5 35.7V28.05Z" fill="#008A9D"/>
</svg>
