<svg width="493" height="493" viewBox="0 0 493 493" fill="none" xmlns="http://www.w3.org/2000/svg">
<path d="M97.0814 340.498C79.0357 363.791 87.3986 413.766 87.3986 413.766C87.3986 413.766 32.7672 344.468 24.5973 299.659C19.1642 269.861 22.9269 283.229 78.7028 177.667C134.479 72.104 142.42 49.6187 200.178 48.7929C219.354 48.5187 243.033 65.6984 257.181 88.4664C272.863 113.702 277.872 145.35 274.511 157.892C268.118 181.751 234.687 196.767 211.283 225.657C162.918 273.912 115.127 317.204 97.0814 340.498Z" fill="#0094A8"/>
<path d="M256.013 94.4133C244.541 67.2717 196.875 50.0881 196.875 50.0881C196.875 50.0881 284.049 36.3957 327.117 51.2176C355.758 61.0745 342.26 57.8077 406.98 158.136C471.7 258.464 487.415 276.4 459.848 327.162C451.126 343.222 423.474 355.537 398.052 357.223C367.227 359.267 338.007 347.997 328.323 338.539C310.652 321.28 313.934 284.779 300.207 250.225C281.823 184.424 267.484 121.555 256.013 94.4133Z" fill="#808080"/>
<path d="M387.77 353.286C417.707 356.084 458.109 329.213 458.109 329.213C458.109 329.213 423.827 410.525 388.541 439.326C365.076 458.479 374.963 448.726 255.591 450.889C136.219 453.052 112.695 456.962 84.0683 406.79C64.0298 371.669 119.702 294.929 143.68 289C167.659 283.071 196.957 305.087 233.559 311.622C299.174 330.657 357.834 350.487 387.77 353.286Z" fill="#033144"/>
</svg>
