<svg width="1008" height="245" viewBox="0 0 1008 245" fill="none" xmlns="http://www.w3.org/2000/svg">
<path d="M38.3103 172.383C33.2829 184.363 42.5478 204.693 42.5478 204.693C42.5478 204.693 11.3718 181.413 2.7787 163.261C-2.9359 151.19 0.192276 156.455 11.9005 105.13C23.6088 53.8055 24.4249 43.3227 48.9301 36.3796C57.066 34.0744 69.1114 38.6891 77.7355 46.7714C87.2941 55.7297 93.0392 68.6369 93.0392 74.3624C93.0392 85.2535 80.5144 95.4639 73.8436 110.439C58.7513 136.51 43.3377 160.402 38.3103 172.383Z" fill="#728A93"/>
<path d="M76.9996 49.2254C69.0167 38.9748 46.7543 37.096 46.7543 37.096C46.7543 37.096 82.3195 21.3161 102.354 22.7138C115.677 23.6433 109.555 23.7925 148.569 59.1366C187.583 94.4807 196.323 100.326 190.375 125.092C188.493 132.927 178.121 141.328 167.487 144.947C154.591 149.335 140.86 147.87 135.657 144.947C126.161 139.613 123.393 123.692 113.603 110.542C98.2644 84.6156 84.9826 59.4759 76.9996 49.2254Z" fill="#B7B7B7"/>
<path d="M162.658 144.472C175.727 142.247 189.868 126.192 189.868 126.192C189.868 126.192 184.547 164.735 172.805 181.028C164.997 191.863 168.095 186.581 117.501 201.125C66.9069 215.669 57.3343 220.019 39.4165 201.917C26.8742 189.246 41.8274 150.209 51.3632 144.947C60.8991 139.686 75.8897 145.719 92.2243 144.325C122.342 144.944 149.589 146.696 162.658 144.472Z" fill="#255973"/>
<path d="M305.313 174L294.138 147.329H243.627L232.452 174H217.701L261.805 69.998H275.96L320.064 174H305.313ZM248.991 134.217V134.962H288.774V134.217L269.106 86.686H268.808L248.991 134.217ZM363.015 103.076C356.26 103.076 351.194 104.169 347.817 106.354C344.44 108.44 342.751 111.072 342.751 114.251C342.751 117.33 343.943 119.764 346.327 121.552C348.711 123.241 351.691 124.482 355.267 125.277C358.843 126.072 362.717 127.065 366.889 128.257C371.061 129.449 374.935 130.79 378.511 132.28C382.087 133.671 385.067 136.055 387.451 139.432C389.835 142.71 391.027 146.783 391.027 151.65C391.027 159.1 387.997 164.911 381.938 169.083C375.978 173.156 368.329 175.192 358.992 175.192C349.754 175.192 340.367 172.957 330.831 168.487V155.375H331.427C339.97 160.242 349.357 162.676 359.588 162.676C371.905 162.676 378.064 158.752 378.064 150.905C378.064 148.024 376.375 145.789 372.998 144.2C369.72 142.511 365.697 141.17 360.929 140.177C356.26 139.084 351.542 137.843 346.774 136.452C342.105 134.962 338.082 132.479 334.705 129.002C331.427 125.426 329.788 120.906 329.788 115.443C329.788 108.49 332.52 102.679 337.983 98.01C343.446 93.242 350.499 90.858 359.141 90.858C367.882 90.858 376.574 92.2983 385.216 95.179V107.546H384.471C377.021 104.566 369.869 103.076 363.015 103.076ZM469.037 104.417H424.337V126.767H464.865V139.134H424.337V161.633H469.037V174H411.374V92.05H469.037V104.417ZM565.609 92.05H584.085V174H570.973V111.569H570.824L543.408 174H531.935L504.519 111.569H504.37V174H491.258V92.05H509.734L537.597 157.312H537.895L565.609 92.05ZM663.916 92.05H676.879V174H663.916V138.985H623.686V174H610.574V92.05H623.686V127.065H663.916V92.05Z" fill="#255973"/>
<path d="M305.313 174L294.138 147.329H243.627L232.452 174H217.701L261.805 69.998H275.96L320.064 174H305.313ZM248.991 134.217V134.962H288.774V134.217L269.106 86.686H268.808L248.991 134.217ZM363.015 103.076C356.26 103.076 351.194 104.169 347.817 106.354C344.44 108.44 342.751 111.072 342.751 114.251C342.751 117.33 343.943 119.764 346.327 121.552C348.711 123.241 351.691 124.482 355.267 125.277C358.843 126.072 362.717 127.065 366.889 128.257C371.061 129.449 374.935 130.79 378.511 132.28C382.087 133.671 385.067 136.055 387.451 139.432C389.835 142.71 391.027 146.783 391.027 151.65C391.027 159.1 387.997 164.911 381.938 169.083C375.978 173.156 368.329 175.192 358.992 175.192C349.754 175.192 340.367 172.957 330.831 168.487V155.375H331.427C339.97 160.242 349.357 162.676 359.588 162.676C371.905 162.676 378.064 158.752 378.064 150.905C378.064 148.024 376.375 145.789 372.998 144.2C369.72 142.511 365.697 141.17 360.929 140.177C356.26 139.084 351.542 137.843 346.774 136.452C342.105 134.962 338.082 132.479 334.705 129.002C331.427 125.426 329.788 120.906 329.788 115.443C329.788 108.49 332.52 102.679 337.983 98.01C343.446 93.242 350.499 90.858 359.141 90.858C367.882 90.858 376.574 92.2983 385.216 95.179V107.546H384.471C377.021 104.566 369.869 103.076 363.015 103.076ZM469.037 104.417H424.337V126.767H464.865V139.134H424.337V161.633H469.037V174H411.374V92.05H469.037V104.417ZM565.609 92.05H584.085V174H570.973V111.569H570.824L543.408 174H531.935L504.519 111.569H504.37V174H491.258V92.05H509.734L537.597 157.312H537.895L565.609 92.05ZM663.916 92.05H676.879V174H663.916V138.985H623.686V174H610.574V92.05H623.686V127.065H663.916V92.05Z" fill="#728A93"/>
<path d="M824.247 69.998H838.402L804.43 174H790.871L765.541 93.242H764.796L739.466 174H725.907L691.935 69.998H706.09L732.314 155.822H732.761L759.283 69.998H771.054L797.576 155.822H798.023L824.247 69.998ZM911.09 104.417H866.39V126.767H906.918V139.134H866.39V161.633H911.09V174H853.427V92.05H911.09V104.417ZM980.99 131.535C985.758 132.628 989.732 134.962 992.91 138.538C996.089 142.015 997.678 146.187 997.678 151.054C997.678 158.802 994.996 164.563 989.632 168.338C984.368 172.113 976.918 174 967.282 174H933.31V92.05H966.686C975.13 92.05 981.686 94.0863 986.354 98.159C991.023 102.132 993.357 107.397 993.357 113.953C993.357 122.794 989.235 128.605 980.99 131.386V131.535ZM946.273 103.374V126.618H963.408C974.732 126.618 980.394 122.545 980.394 114.4C980.394 111.023 979.053 108.341 976.371 106.354C973.689 104.367 970.064 103.374 965.494 103.374H946.273ZM965.941 162.527C978.457 162.527 984.715 158.454 984.715 150.309C984.715 142.064 978.507 137.942 966.09 137.942H946.273V162.527H965.941Z" fill="#255973"/>
</svg>
