<svg width="175" height="200" viewBox="0 0 175 200" fill="none" xmlns="http://www.w3.org/2000/svg">
<path d="M31.1876 140.333C27.0949 150.086 34.6372 166.636 34.6372 166.636C34.6372 166.636 9.2575 147.684 2.26202 132.907C-2.39012 123.08 0.156467 127.366 9.68793 85.5838C19.2194 43.8016 19.8838 35.2678 39.833 29.6155C46.4562 27.739 56.2621 31.4956 63.2828 38.0753C71.0643 45.368 75.7412 55.8755 75.7412 60.5365C75.7412 69.4028 65.5451 77.7149 60.1145 89.906C47.8282 111.13 35.2803 130.58 31.1876 140.333Z" fill="#728A93"/>
<path d="M62.6838 40.0734C56.185 31.7287 38.0617 30.1991 38.0617 30.1991C38.0617 30.1991 67.0145 17.353 83.324 18.4909C94.1702 19.2476 89.1865 19.369 120.947 48.1419C152.707 76.9149 159.822 81.6735 154.98 101.835C153.448 108.213 145.005 115.052 136.347 117.998C125.849 121.571 114.672 120.378 110.435 117.998C102.705 113.656 100.452 100.696 92.4822 89.9903C79.995 68.8838 69.1825 48.4182 62.6838 40.0734Z" fill="#B7B7B7"/>
<path d="M132.416 117.612C143.056 115.801 154.568 102.73 154.568 102.73C154.568 102.73 150.236 134.108 140.677 147.371C134.321 156.192 136.843 151.892 95.655 163.732C54.4675 175.572 46.6746 179.113 32.0881 164.377C21.8776 154.062 34.0507 122.282 41.8137 117.999C49.5766 113.716 61.7802 118.627 75.0778 117.493C99.5963 117.996 121.777 119.423 132.416 117.612Z" fill="#255973"/>
</svg>
